<svg xmlns="http://www.w3.org/2000/svg" viewBox="0 0 100 100"><defs><linearGradient id="g" x1="0" y1="0" x2="1" y2="1"><stop stop-color="#28a779"/><stop offset="1" stop-color="#07513d"/></linearGradient></defs><rect x="3" y="3" width="94" height="94" rx="26" fill="#e9f4e6" stroke="#c9e3d0" stroke-width="2"/><path d="M70 24A31 31 0 1 0 80 56H57v-9h34v10A41 41 0 1 1 75 17z" fill="url(#g)"/><path d="M21 48C28 30 43 19 59 15 58 31 48 43 31 50" fill="#67b84e" stroke="#fff" stroke-width="2"/><path d="M29 65l12-11 10 9 10-7 14 10v8H29z" fill="#fff" stroke="#187253" stroke-width="2"/><path d="M25 75q22-12 53 0" fill="none" stroke="#57a75b" stroke-width="5" stroke-linecap="round"/><circle cx="77" cy="23" r="4" fill="#d6ae48"/><path d="M75 24l-7 8M80 26l7 5" stroke="#17835b" stroke-width="2" stroke-linecap="round"/></svg>
